<svg width="94" height="33" viewBox="0 0 94 33" fill="none" xmlns="http://www.w3.org/2000/svg">
<path fill-rule="evenodd" clip-rule="evenodd" d="M0 4.77769L7.67326e-07 0L21.6323 0.132714C22.5613 0.176951 24.4193 0.743196 24.4193 2.65427V16.9873C24.5078 17.8721 24.1008 19.6416 21.765 19.6416L9.02453 19.6416C8.22825 19.7301 6.63568 19.3762 6.63568 17.2528C6.63568 15.1294 6.54721 9.37843 6.50297 6.76839L11.0152 8.36095L11.2807 14.9966L19.6416 14.8639L19.6416 5.04311L0 4.77769ZM73.4677 19.6717L78.2625 19.6546L78.599 4.9013L88.4549 4.86623L88.5582 9.3753L81.8979 9.66537L80.2835 14.1994C82.903 14.1457 88.6748 14.0364 90.8058 14.0288C92.9368 14.0212 93.2977 12.4217 93.2117 11.6229C93.2181 9.84242 93.2284 8.06487 93.238 6.43688L93.238 6.43419L93.238 6.42535C93.246 5.05386 93.2534 3.78887 93.2572 2.71817C93.2656 0.374066 91.4912 -0.0280566 90.603 0.0638951L76.2187 0.115079C74.3008 0.121904 73.7259 1.98855 73.6782 2.92102L73.4677 19.6717ZM15.9991 32.7412C16.4959 32.9137 17.0134 33 17.5516 33C18.145 33 18.6453 32.9137 19.0524 32.7412C19.4595 32.5618 19.7596 32.3238 19.9528 32.0271C20.1529 31.7235 20.253 31.3888 20.253 31.0231C20.253 30.5815 20.1391 30.2331 19.9114 29.9778C19.6837 29.7156 19.4043 29.5224 19.0731 29.3982C18.7488 29.2671 18.321 29.136 17.7897 29.0049C17.3412 28.8945 16.9824 28.7944 16.7133 28.7047C16.451 28.6081 16.2302 28.4736 16.0508 28.3011C15.8783 28.1217 15.7921 27.8871 15.7921 27.5973C15.7921 27.2109 15.9508 26.8969 16.2682 26.6554C16.5925 26.407 17.0721 26.2828 17.7069 26.2828C18.0381 26.2828 18.3762 26.3346 18.7212 26.4381C19.0662 26.5347 19.3905 26.683 19.6941 26.8831L19.9528 26.2725C19.663 26.0724 19.318 25.9171 18.9178 25.8067C18.5245 25.6894 18.1209 25.6308 17.7069 25.6308C17.1135 25.6308 16.6166 25.7205 16.2164 25.8999C15.8162 26.0793 15.5195 26.3208 15.3263 26.6244C15.1331 26.9211 15.0365 27.2523 15.0365 27.618C15.0365 28.0665 15.1504 28.4218 15.3781 28.684C15.6127 28.9462 15.8921 29.1429 16.2164 29.274C16.5408 29.3982 16.9755 29.5293 17.5206 29.6673C17.976 29.7777 18.3313 29.8812 18.5866 29.9778C18.8419 30.0675 19.0558 30.1986 19.2283 30.3711C19.4077 30.5436 19.4974 30.7747 19.4974 31.0645C19.4974 31.444 19.3353 31.7545 19.011 31.996C18.6867 32.2306 18.2002 32.3479 17.5516 32.3479C17.0893 32.3479 16.6408 32.2686 16.2061 32.1099C15.7714 31.9443 15.4229 31.7304 15.1607 31.4682L14.8606 32.0581C15.1297 32.341 15.5092 32.5687 15.9991 32.7412ZM65.7942 32.5239C66.3738 32.8413 67.0224 33 67.74 33C68.2782 33 68.775 32.9103 69.2304 32.7309C69.6927 32.5446 70.0826 32.2789 70.4 31.9339L69.9135 31.4475C69.3546 32.0271 68.6405 32.3169 67.7711 32.3169C67.1984 32.3169 66.6774 32.1858 66.2082 31.9236C65.739 31.6614 65.3699 31.3026 65.1007 30.8472C64.8385 30.3918 64.7074 29.8812 64.7074 29.3154C64.7074 28.7496 64.8385 28.239 65.1007 27.7836C65.3699 27.3282 65.739 26.9694 66.2082 26.7072C66.6774 26.445 67.1984 26.3139 67.7711 26.3139C68.6336 26.3139 69.3477 26.6002 69.9135 27.1729L70.4 26.6865C70.0826 26.3415 69.6962 26.0793 69.2408 25.8999C68.7854 25.7205 68.2886 25.6308 67.7504 25.6308C67.0328 25.6308 66.3842 25.7895 65.8046 26.1069C65.2249 26.4243 64.7695 26.8659 64.4383 27.4317C64.114 27.9906 63.9519 28.6185 63.9519 29.3154C63.9519 30.0123 64.114 30.6436 64.4383 31.2094C64.7695 31.7683 65.2215 32.2065 65.7942 32.5239ZM74.5074 32.7412C75.0042 32.9138 75.5217 33 76.0599 33C76.6533 33 77.1535 32.9138 77.5607 32.7412C77.9678 32.5619 78.2679 32.3238 78.4611 32.0271C78.6612 31.7235 78.7613 31.3888 78.7613 31.0231C78.7613 30.5815 78.6474 30.2331 78.4197 29.9778C78.192 29.7156 77.9126 29.5224 77.5814 29.3982C77.257 29.2671 76.8292 29.136 76.2979 29.0049C75.8494 28.8945 75.4906 28.7944 75.2215 28.7047C74.9593 28.6081 74.7385 28.4736 74.5591 28.3011C74.3866 28.1217 74.3004 27.8871 74.3004 27.5973C74.3004 27.2109 74.4591 26.8969 74.7765 26.6554C75.1008 26.407 75.5803 26.2828 76.2151 26.2828C76.5463 26.2828 76.8844 26.3346 77.2294 26.4381C77.5745 26.5347 77.8988 26.683 78.2024 26.8831L78.4611 26.2725C78.1713 26.0724 77.8263 25.9171 77.4261 25.8067C77.0328 25.6894 76.6291 25.6308 76.2151 25.6308C75.6217 25.6308 75.1249 25.7205 74.7247 25.8999C74.3245 26.0793 74.0278 26.3208 73.8346 26.6244C73.6414 26.9211 73.5448 27.2523 73.5448 27.618C73.5448 28.0665 73.6587 28.4218 73.8864 28.684C74.121 28.9462 74.4004 29.1429 74.7247 29.274C75.049 29.3982 75.4837 29.5293 76.0288 29.6673C76.4842 29.7777 76.8396 29.8812 77.0949 29.9778C77.3502 30.0675 77.5641 30.1986 77.7366 30.3711C77.916 30.5436 78.0057 30.7747 78.0057 31.0645C78.0057 31.444 77.8436 31.7545 77.5192 31.996C77.1949 32.2306 76.7085 32.3479 76.0599 32.3479C75.5976 32.3479 75.1491 32.2686 74.7144 32.1099C74.2797 31.9443 73.9312 31.7304 73.669 31.4682L73.3689 32.0581C73.638 32.341 74.0175 32.5687 74.5074 32.7412ZM59.4004 25.6928H60.1663V32.9379H59.4004V25.6928ZM50.2486 26.3552H52.7947V32.9379H53.5606V26.3552H56.1067V25.6928H50.2486V26.3552ZM47.5167 32.2755V32.9379H42.3934V25.6928H47.3615V26.3552H43.1593V28.9324H46.9061V29.5845H43.1593V32.2755H47.5167ZM37.9586 32.9379V25.6928H37.203V28.9221H32.6697V25.6928H31.9038V32.9379H32.6697V29.5948H37.203V32.9379H37.9586ZM25.2983 26.3552H22.7522V25.6928H28.6103V26.3552H26.0642V32.9379H25.2983V26.3552ZM46.9989 4.80766L46.9989 0.162686L31.6533 0.162692C30.7132 0.20693 28.8329 0.773171 28.8329 2.68425L28.8329 3.09484C28.827 3.1305 28.823 3.16955 28.8209 3.21223L28.8209 15.7882L28.833 15.7949L28.833 17.0894C28.833 19.0004 30.7133 19.5667 31.6535 19.6109L46.999 19.6109L46.999 14.966L33.6681 14.9659H33.5217L33.5217 12.2431H34.9116L43.8783 12.2431L43.8783 9.92063L43.8783 7.59815L33.5217 7.59815V5.20294L33.5217 4.80767H33.6679L46.9989 4.80766ZM69.3548 0.162686L69.3549 4.80766L56.0239 4.80767H55.8777L55.8777 5.20294V7.59815L66.234 7.59815L66.234 9.92063L66.2341 12.2431L57.2674 12.2431H55.8777L55.8776 14.9659H56.0238L69.3548 14.966L69.3548 19.6109L54.0092 19.6109C53.0691 19.5667 51.1888 19.0005 51.1888 17.0894L51.1888 15.7948L51.1769 15.7882L51.1769 3.21223C51.179 3.16955 51.1829 3.1305 51.1888 3.09484V2.68425C51.1888 0.773171 53.0691 0.20693 54.0093 0.162692L69.3548 0.162686Z" fill="#1B1B1B"/>
</svg>
